<?xml version="1.0" encoding="utf-8"?>
<!-- Generator: Adobe Illustrator 19.0.0, SVG Export Plug-In . SVG Version: 6.00 Build 0)  -->
<svg version="1.1" id="Capa_1" xmlns="http://www.w3.org/2000/svg" xmlns:xlink="http://www.w3.org/1999/xlink" x="0px" y="0px"
	 viewBox="-281 373 48 48" style="enable-background:new -281 373 48 48;" xml:space="preserve">
<style type="text/css">
	.st0{fill:#FFFFFF;}
</style>
<path class="st0" d="M-257,378.2c-10.8,0-19.6,8.8-19.6,19.6c0,10.8,8.8,19.6,19.6,19.6c10.8,0,19.6-8.8,19.6-19.6c0,0,0,0,0,0
	C-237.4,386.9-246.2,378.1-257,378.2z M-246.9,413c-1,0.7-2.1,1.3-3.4,1.7c-0.4,0.1-1,0.4-1.1,0.4c0,0-0.1,0-0.1,0
	c0,0-0.7,0.2-1.2,0.3c-0.8,0.2-2,0.4-3,0.4c-0.5,0-1.9,0.1-2.4,0c-2-0.1-3.8-0.5-5.6-1.1c-0.6-0.2-1.7-0.7-2.3-1.1
	c-0.4-0.2-1.2-0.8-1.3-0.9c0,0-0.1-0.1-0.1-0.1c0,0,0.1,0,0.4,0c6.3-0.1,11.5-0.6,14.8-1.4c0.8-0.2,1.7-0.5,2.1-0.7
	c0.2-0.1,0.3-0.1,0.6,0.2c0.5,0.4,1.2,0.8,1.8,1.1c0.4,0.2,0.9,0.4,1.1,0.5c0.1,0,0.1,0,0.1,0.1C-246.4,412.6-246.3,412.6-246.9,413
	z M-242.5,408.9c0,0.1-0.2,0.4-0.3,0.6c-0.4,0.5-0.9,1.1-1.4,1.5c-0.3,0.3-0.9,0.7-0.9,0.7c-0.1,0.1-1.2-0.3-2-0.7
	c-0.7-0.4-1.8-1-2.3-1.4c-0.1-0.1-0.1-0.1-0.2-0.1c0,0-1.4,0.4-1.7,0.6c-0.3,0.1-1.5,0.4-2,0.5c-2.5,0.6-4.9,1-7.3,1.2
	c-1.6,0.1-4,0.1-5.3,0.1h0c-1,0-2.6-0.2-3.1-0.2c-0.1,0-0.2-0.1-0.4-0.3c-0.7-0.6-1.4-1.4-2-2.3c-0.2-0.2-0.6-0.9-0.7-1l-0.1-0.1
	l0.1,0c0,0,0.2,0,0.5,0.1c3.1,0.4,6.5,0.5,9.4,0.4c4.9-0.2,9-1.1,12.5-2.6c0.2-0.1,0.4-0.2,0.5-0.2s0.2-0.1,0.2-0.1
	c0,0,0.2,0.1,0.4,0.3c0.3,0.3,0.7,0.6,0.9,0.7c0,0,0.1,0.1,0.2,0.2c0.6,0.4,1.5,1,2.2,1.3c0.8,0.4,1.8,0.7,2.5,0.9L-242.5,408.9
	L-242.5,408.9z M-240.1,405.2c-0.2,0.6-0.5,1.2-1,1.8c-0.2,0.3-0.5,0.7-0.6,0.7c0,0-0.2,0-0.4-0.1c-0.8-0.2-1.6-0.4-2.5-0.8
	c-0.3-0.1-0.9-0.4-1.2-0.6c-0.1-0.1-0.2-0.1-0.2-0.1s-0.2-0.1-0.4-0.3c-0.8-0.5-1.4-1-2-1.6c-0.1-0.1-0.2-0.2-0.2-0.2
	s-0.2,0.1-0.5,0.2c-0.2,0.1-0.6,0.3-0.9,0.4c-0.2,0.1-0.5,0.2-0.5,0.2c-0.2,0.1-1.3,0.5-1.8,0.6c-1.1,0.4-2.5,0.7-3.7,1
	c-4.2,0.9-8.8,1.1-13.6,0.7c-1.1-0.1-3.3-0.4-3.5-0.5c0,0-0.1-0.1-0.2-0.3c-0.4-0.7-0.8-1.6-1-2.2c-0.1-0.4-0.3-1-0.3-1
	c0,0,0.4,0,0.9,0.1c4.8,0.5,9.1,0.6,12.9,0.3c1.4-0.1,2.8-0.3,4.2-0.6c2.4-0.5,4.8-1.2,6.8-2.1c0.4-0.2,1.3-0.6,1.3-0.6
	c0,0,0.1,0,0.1,0c0.1,0,0.1,0,0.3,0.2c1.4,1.4,3.5,2.7,5.9,3.5c0.4,0.1,1.2,0.4,1.6,0.5c0.2,0,0.3,0.1,0.3,0.1
	C-239.9,404.4-240,404.9-240.1,405.2z"/>
</svg>
