<?xml version="1.0" encoding="utf-8"?>
<!-- Generator: Adobe Illustrator 19.0.0, SVG Export Plug-In . SVG Version: 6.00 Build 0)  -->
<svg version="1.1" id="Capa_1" xmlns="http://www.w3.org/2000/svg" xmlns:xlink="http://www.w3.org/1999/xlink" x="0px" y="0px"
	 viewBox="-281 373 48 48" style="enable-background:new -281 373 48 48;" xml:space="preserve">
<style type="text/css">
	.st0{fill-rule:evenodd;clip-rule:evenodd;fill:#FFFFFF;}
</style>
<path class="st0" d="M-264.8,396.1c0,0,0-0.7,0.1-1.2c0.9-3.9-3.5-3.9-5.2-1.9c-0.1,0.1-0.2,0.2-0.2,0.3c-1.9,2.6-0.9,5.4,1.2,7.2
	c3.2,2.9,9.1,2.9,12.4-0.2c3.8-3.5,3.2-9.7-0.2-13.1c-4.3-4.4-8.6-2.6-13.6-1.3c-1,0.3-1.7,0.4-1.8,0.4c-0.5-0.1-0.8-0.6-0.6-1.4
	c0.3-1.1,1.3-2.3,2.2-3c0.3-0.2,0.6-0.4,0.9-0.6c3.7-2.4,8.1-2.8,12.2-1.7c8.8,2.5,12.9,11.5,10.1,19.5c-1,2.9-3,6-5.9,7.4l0,0
	c-0.8,0.4-0.7,0.5,0,0.7c0.6,0.2,1.4,0.5,2.1,0.7c0.5,0.2,2.9,1.4,4.2,2.1c0.5,0.3,2.6,1.1,3.1,1.2c1.4,0.4,3.3,0.5,4.7-0.1
	c0.9-0.3,1.4-0.8,2-0.5c0.3,0.2,0,0.9-0.3,1.4c-1.6,2.9-5.1,4-8.3,4.1c-3.8,0.1-6.5-1.3-9.8-2.9c-3.2-1.6-5.5-2.1-9-1.9l0,0
	c-2.6,0.1-5.2,0.6-7.8,1.1c-0.6,0.1-1.6,0.5-1.2-0.4c0.6-1.6,2.6-2.8,4-3.6c0.2-0.1,0.4-0.2,0.4-0.3c0.2-0.3-0.9-0.8-1.4-1.1
	c0,0,0,0-0.1,0c-3.8-1.3-6.1-3.7-7.1-7.5c-1.1-4.2-0.3-8.4,3-11.1c2.8-2.3,7.4-3.1,10.7-1.1c2.7,1.7,4.1,6.6,0.2,8.1
	C-264.3,395.9-264.8,396.1-264.8,396.1L-264.8,396.1L-264.8,396.1z"/>
</svg>
